<svg width="17" height="21" viewBox="0 0 17 21" fill="none" xmlns="http://www.w3.org/2000/svg">
<path d="M8.50008 0.083252C5.62821 0.083252 3.29175 2.41971 3.29175 5.29159V8.41659H2.25008C1.10112 8.41659 0.166748 9.35096 0.166748 10.4999V18.8333C0.166748 19.9822 1.10112 20.9166 2.25008 20.9166H14.7501C15.899 20.9166 16.8334 19.9822 16.8334 18.8333V10.4999C16.8334 9.35096 15.899 8.41659 14.7501 8.41659H13.7084V5.29159C13.7084 2.41971 11.372 0.083252 8.50008 0.083252ZM14.7501 10.4999L14.7522 18.8333H2.25008V10.4999H14.7501ZM5.37508 8.41659V5.29159C5.37508 3.56867 6.77716 2.16659 8.50008 2.16659C10.223 2.16659 11.6251 3.56867 11.6251 5.29159V8.41659H5.37508Z" fill="black" fill-opacity="0.8"/>
</svg>
