<svg width="20" height="11" viewBox="0 0 20 11" fill="none" xmlns="http://www.w3.org/2000/svg">
<path d="M5.29158 10.7084C7.80617 10.7084 9.91138 8.91571 10.3937 6.54175H12.5833V8.62508H14.6666V6.54175H16.7499V9.66675H18.8333V6.54175H19.8749V4.45841H10.3937C9.91138 2.08446 7.80617 0.291748 5.29158 0.291748C2.41971 0.291748 0.083252 2.62821 0.083252 5.50008C0.083252 8.37196 2.41971 10.7084 5.29158 10.7084ZM5.29158 2.37508C7.0145 2.37508 8.41658 3.77716 8.41658 5.50008C8.41658 7.223 7.0145 8.62508 5.29158 8.62508C3.56867 8.62508 2.16659 7.223 2.16659 5.50008C2.16659 3.77716 3.56867 2.37508 5.29158 2.37508Z" fill="black" fill-opacity="0.8"/>
</svg>
