<svg width="24" height="24" viewBox="0 0 24 24" fill="none" xmlns="http://www.w3.org/2000/svg">
<path d="M2.00363 23.25C2.10488 23.25 2.20613 23.2375 2.30613 23.2125L7.30613 21.9625C7.52613 21.9075 7.72738 21.7938 7.88738 21.6338L23.2536 6.26751C23.7261 5.79501 23.9861 5.16751 23.9861 4.50001C23.9861 3.83251 23.7261 3.20501 23.2536 2.73251L21.2711 0.75001C20.3261 -0.19499 18.6811 -0.19499 17.7361 0.75001L2.36988 16.1163C2.20988 16.2763 2.09613 16.4775 2.04113 16.6963L0.791128 21.6963C0.683628 22.1225 0.809878 22.5725 1.11988 22.8838C1.35613 23.1213 1.67613 23.25 2.00363 23.25ZM19.5036 2.51751L21.4861 4.50001L19.5036 6.48251L17.5211 4.50001L19.5036 2.51751ZM4.38238 17.6388L15.7536 6.26751L17.7361 8.25001L6.36363 19.6213L3.72113 20.2813L4.38238 17.6388Z" fill="black" fill-opacity="0.3"/>
</svg>
