<svg width="18" height="18" viewBox="0 0 18 18" fill="none" xmlns="http://www.w3.org/2000/svg">
<path d="M15.6376 6.10091C15.6567 5.95591 15.6667 5.81091 15.6667 5.66675C15.6667 3.68425 13.8809 2.09341 11.8992 2.36258C11.3217 1.33508 10.2217 0.666748 9.00008 0.666748C7.77842 0.666748 6.67841 1.33508 6.10091 2.36258C4.11508 2.09341 2.33341 3.68425 2.33341 5.66675C2.33341 5.81091 2.34341 5.95591 2.36258 6.10091C1.33508 6.67925 0.666748 7.77925 0.666748 9.00008C0.666748 10.2209 1.33508 11.3209 2.36258 11.8992C2.34341 12.0442 2.33341 12.1892 2.33341 12.3334C2.33341 14.3159 4.11508 15.9026 6.10091 15.6376C6.67841 16.6651 7.77842 17.3334 9.00008 17.3334C10.2217 17.3334 11.3217 16.6651 11.8992 15.6376C13.8809 15.9026 15.6667 14.3159 15.6667 12.3334C15.6667 12.1892 15.6567 12.0442 15.6376 11.8992C16.6651 11.3209 17.3334 10.2209 17.3334 9.00008C17.3334 7.77925 16.6651 6.67925 15.6376 6.10091ZM8.12925 12.6801L5.07341 9.58508L6.26008 8.41508L8.14091 10.3201L11.7467 6.74175L12.9201 7.92508L8.12925 12.6801Z" fill="#0094FF"/>
</svg>
