<svg width="25" height="25" viewBox="0 0 25 25" fill="none" xmlns="http://www.w3.org/2000/svg">
<path d="M12.4999 16.6666C14.7978 16.6666 16.6666 14.7978 16.6666 12.4999C16.6666 10.202 14.7978 8.33325 12.4999 8.33325C10.202 8.33325 8.33325 10.202 8.33325 12.4999C8.33325 14.7978 10.202 16.6666 12.4999 16.6666ZM12.4999 10.4166C13.6291 10.4166 14.5833 11.3708 14.5833 12.4999C14.5833 13.6291 13.6291 14.5833 12.4999 14.5833C11.3708 14.5833 10.4166 13.6291 10.4166 12.4999C10.4166 11.3708 11.3708 10.4166 12.4999 10.4166Z" fill="black" fill-opacity="0.8"/>
<path d="M2.96357 16.8083L4.00524 18.6103C4.55837 19.5655 5.88961 19.9239 6.84899 19.3708L7.40003 19.052C8.00628 19.528 8.67191 19.9187 9.37503 20.2103V20.8333C9.37503 21.9822 10.3094 22.9166 11.4584 22.9166H13.5417C14.6907 22.9166 15.625 21.9822 15.625 20.8333V20.2103C16.3282 19.9187 16.9938 19.528 17.6 19.053L18.1511 19.3718C19.1125 19.9239 20.4407 19.5676 20.9959 18.6103L22.0365 16.8093C22.6115 15.8145 22.2698 14.5374 21.275 13.9635L20.749 13.6593C20.8052 13.2728 20.8334 12.8864 20.8334 12.4999C20.8334 12.1135 20.8052 11.726 20.749 11.3426L21.275 11.0385C22.2698 10.4635 22.6115 9.18742 22.0365 8.19263L20.9959 6.39159C20.4427 5.43325 19.1125 5.07388 18.1511 5.62909L17.6 5.94784C16.9938 5.47179 16.3282 5.08117 15.625 4.7895V4.16659C15.625 3.01763 14.6907 2.08325 13.5417 2.08325H11.4584C10.3094 2.08325 9.37503 3.01763 9.37503 4.16659V4.7895C8.67191 5.08117 8.00628 5.47179 7.40003 5.94679L6.84899 5.62804C5.88649 5.07492 4.55732 5.43325 4.0042 6.39054L2.96357 8.19159C2.38857 9.18638 2.73024 10.4635 3.72503 11.0374L4.25107 11.3416C4.19482 11.726 4.1667 12.1135 4.1667 12.4999C4.1667 12.8864 4.19482 13.2728 4.25107 13.6572L3.72503 13.9614C2.73024 14.5364 2.38857 15.8135 2.96357 16.8083ZM6.42816 13.9353C6.31045 13.4635 6.25003 12.9801 6.25003 12.4999C6.25003 12.0187 6.31045 11.5353 6.42711 11.0645C6.53961 10.6135 6.34066 10.1426 5.93753 9.91034L4.76774 9.23325L5.80732 7.43221L7.00003 8.12179C7.40003 8.352 7.90316 8.29367 8.23753 7.97388C8.94899 7.29992 9.80732 6.79575 10.7209 6.51659C11.1594 6.38325 11.4584 5.97804 11.4584 5.52075V4.16659H13.5417V5.52075C13.5417 5.97804 13.8407 6.38325 14.2792 6.51659C15.1927 6.79679 16.0511 7.29992 16.7625 7.97388C17.0969 8.29367 17.6021 8.35096 18 8.12179L19.1917 7.43325L20.2334 9.23429L19.0625 9.91034C18.6594 10.1437 18.4604 10.6145 18.5729 11.0645C18.6896 11.5353 18.75 12.0187 18.75 12.4999C18.75 12.9801 18.6896 13.4635 18.5719 13.9353C18.4604 14.3864 18.6594 14.8572 19.0625 15.0895L20.2323 15.7655L19.1927 17.5666L18 16.878C17.6011 16.6478 17.0969 16.7051 16.7625 17.026C16.0511 17.6999 15.1927 18.2041 14.2792 18.4833C13.8407 18.6166 13.5417 19.0218 13.5417 19.4791L13.5438 20.8333H11.4584V19.4791C11.4584 19.0218 11.1594 18.6166 10.7209 18.4833C9.80732 18.203 8.94899 17.6999 8.23753 17.026C8.03961 16.8364 7.78128 16.7395 7.52086 16.7395C7.3417 16.7395 7.16253 16.7853 7.00003 16.8791L5.80837 17.5687L4.7667 15.7676L5.93753 15.0895C6.34066 14.8572 6.53961 14.3864 6.42816 13.9353Z" fill="black" fill-opacity="0.8"/>
</svg>
