<svg width="21" height="21" viewBox="0 0 21 21" fill="none" xmlns="http://www.w3.org/2000/svg">
<path d="M4.78739 12.9198L3.23531 19.6406C3.13948 20.0562 3.30614 20.4885 3.65823 20.7312C3.83635 20.8541 4.0426 20.9166 4.24989 20.9166C4.45094 20.9166 4.65302 20.8583 4.82802 20.7416L10.4999 16.9604L16.1718 20.7416C16.5343 20.9833 17.0103 20.9739 17.3645 20.7166C17.7166 20.4594 17.8718 20.0083 17.752 19.5896L15.8468 12.9229L20.5718 8.67081C20.8811 8.39165 20.9947 7.95623 20.8614 7.56248C20.727 7.16873 20.3718 6.89165 19.9572 6.85831L14.0186 6.3854L11.4489 0.696855C11.2811 0.322896 10.9093 0.083313 10.4999 0.083313C10.0905 0.083313 9.71864 0.322896 9.55094 0.696855L6.98114 6.3854L1.0426 6.85727C0.634269 6.88956 0.283227 7.15727 0.145727 7.54165C0.00614406 7.92602 0.106144 8.35623 0.397811 8.64165L4.78739 12.9198ZM7.75927 8.41352C8.13739 8.38331 8.47073 8.14998 8.62594 7.80311L10.4999 3.65623L12.3739 7.80311C12.5291 8.14998 12.8624 8.38331 13.2405 8.41352L17.378 8.74165L13.9707 11.8083C13.6749 12.075 13.5572 12.4854 13.6655 12.8687L14.9707 17.4364L11.0791 14.8416C10.7291 14.6073 10.2739 14.6073 9.92385 14.8416L5.85719 17.5531L6.95094 12.8177C7.03219 12.4635 6.92385 12.0916 6.66344 11.8385L3.49885 8.75311L7.75927 8.41352Z" fill="black" fill-opacity="0.8"/>
</svg>
