<svg width="25" height="25" viewBox="0 0 25 25" fill="none" xmlns="http://www.w3.org/2000/svg">
<path d="M12.5 8.33325V13.5416H17.7083V11.4583H14.5833V8.33325H12.5Z" fill="black" fill-opacity="0.8"/>
<path d="M22.1791 8.8509C21.9437 8.2936 21.653 7.75715 21.3155 7.25819C20.9801 6.76027 20.5958 6.2936 20.1708 5.86965C19.7458 5.44569 19.2812 5.06235 18.7833 4.7259C18.2812 4.38631 17.7447 4.09673 17.1916 3.86235C16.6239 3.62277 16.0312 3.4384 15.4312 3.31548C14.201 3.06235 12.8853 3.06131 11.6541 3.31548C11.051 3.4384 10.4593 3.62277 9.89367 3.86131C9.34054 4.09569 8.80513 4.38527 8.30096 4.7259C7.80409 5.06131 7.33638 5.44673 6.91242 5.87069C6.48846 6.29465 6.10304 6.76235 5.76763 7.25819C5.42804 7.76235 5.13742 8.29777 4.90409 8.84985C4.6645 9.41652 4.48013 10.0092 4.35721 10.6103C4.23117 11.2269 4.16659 11.8624 4.16659 12.4999C4.16659 12.5082 4.16763 12.5176 4.16763 12.5259H2.08325L5.20825 16.6665L8.33325 12.5259H6.25096C6.25096 12.5176 6.24992 12.5082 6.24992 12.4999C6.24992 12.003 6.29992 11.5082 6.39784 11.029C6.49367 10.5613 6.63638 10.1019 6.82284 9.66131C7.00409 9.23215 7.23013 8.81444 7.49471 8.42381C7.75513 8.03735 8.05513 7.67485 8.38534 7.3436C8.71554 7.01235 9.07909 6.7134 9.4645 6.45298C9.85617 6.1884 10.2739 5.96235 10.7041 5.78006C11.1426 5.5936 11.603 5.4509 12.0718 5.35506C13.0291 5.15819 14.0551 5.15923 15.0124 5.35506C15.478 5.4509 15.9395 5.5936 16.3801 5.78006C16.8103 5.96131 17.227 6.1884 17.6176 6.4509C18.003 6.71235 18.3676 7.01235 18.6978 7.34256C19.028 7.67173 19.327 8.03527 19.5885 8.42277C19.851 8.81027 20.077 9.22694 20.2603 9.66131C20.4458 10.0957 20.5874 10.5551 20.6853 11.0269C20.7833 11.5092 20.8333 12.004 20.8333 12.4999C20.8333 12.9957 20.7833 13.4905 20.6853 13.9686C20.5874 14.4426 20.4458 14.9019 20.2603 15.3374C20.077 15.7707 19.851 16.1863 19.5874 16.5759C19.327 16.9624 19.028 17.3259 18.6978 17.6551C18.3676 17.9853 18.003 18.2853 17.6187 18.5457C17.227 18.8092 16.8114 19.0363 16.3801 19.2186C15.9395 19.4051 15.4791 19.5478 15.0124 19.6436C14.0562 19.8394 13.0312 19.8405 12.0718 19.6436C11.6041 19.5478 11.1447 19.4051 10.7041 19.2186C10.2749 19.0374 9.85721 18.8113 9.46659 18.5467C9.08013 18.2863 8.71763 17.9863 8.38638 17.6561L6.91346 19.129C7.33742 19.554 7.80409 19.9384 8.30096 20.2738C8.80409 20.6134 9.34054 20.904 9.89263 21.1374C10.4593 21.3769 11.052 21.5613 11.653 21.6842C12.2687 21.8103 12.9041 21.8749 13.5416 21.8749C14.1791 21.8749 14.8155 21.8103 15.4301 21.6842C16.0312 21.5613 16.6239 21.378 17.1905 21.1384C17.7447 20.904 18.2812 20.6134 18.7853 20.2728C19.2812 19.9374 19.7468 19.553 20.1708 19.129C20.5947 18.7051 20.9791 18.2384 21.3145 17.7426C21.653 17.2426 21.9437 16.7061 22.1791 16.1499C22.4166 15.5894 22.601 14.9978 22.726 14.3874C22.852 13.7707 22.9166 13.1353 22.9166 12.4999C22.9166 11.8644 22.852 11.229 22.726 10.6103C22.601 10.0019 22.4166 9.41027 22.1791 8.8509Z" fill="black" fill-opacity="0.8"/>
</svg>
