<svg width="11" height="17" viewBox="0 0 11 17" fill="none" xmlns="http://www.w3.org/2000/svg">
<path d="M5.50008 0.166748C2.62821 0.166748 0.291748 2.50321 0.291748 5.37508H2.37508C2.37508 3.65216 3.77716 2.25008 5.50008 2.25008C7.223 2.25008 8.62508 3.65216 8.62508 5.37508C8.62508 6.48862 8.15216 6.90112 7.08237 7.72404C6.68446 8.03029 6.2355 8.37612 5.80529 8.80529C4.43862 10.1709 4.45321 11.5178 4.45841 11.6251V13.7084H6.54175V11.6157C6.54175 11.5907 6.56571 10.9897 7.27821 10.2782C7.61154 9.94487 7.98862 9.65529 8.35216 9.37508C9.45633 8.52508 10.7084 7.56258 10.7084 5.37508C10.7084 2.50321 8.37196 0.166748 5.50008 0.166748ZM4.45841 14.7501H6.54175V16.8334H4.45841V14.7501Z" fill="black" fill-opacity="0.8"/>
</svg>
