<svg width="14" height="26" viewBox="0 0 14 26" fill="none" xmlns="http://www.w3.org/2000/svg">
<path d="M0 6.745C0 6.7475 0 6.74875 0 6.75L0 6.75125L0 16.75C0 19.0475 0.737 21.2325 2.076 22.905C3.415 24.5787 5.163 25.5 7 25.5C8.838 25.5 10.586 24.5787 11.924 22.905C13.263 21.2325 14 19.0475 14 16.75L14 6.75H12L12 16.75C12 18.3787 11.471 19.9375 10.51 21.1375C9.55 22.3388 8.303 23 7 23C5.698 23 4.451 22.3388 3.49 21.1375C2.529 19.9375 2 18.3787 2 16.75L2 6.75H1L2 6.74875C2 6.7475 2 6.74625 2 6.745C2 5.7575 2.314 4.82125 2.886 4.10875C3.457 3.395 4.208 3.00125 5.002 3C5.791 2.99875 6.541 3.39125 7.112 4.105C7.684 4.82125 7.999 5.76125 8 6.75L8 16.75C8 17.07 7.893 17.3813 7.7 17.6225C7.505 17.8663 7.256 18 7 18C6.748 18 6.493 17.8625 6.302 17.6238C6.107 17.3813 6 17.07 6 16.75L6 6.75H4L4 16.75C4 17.7375 4.315 18.6762 4.889 19.3925C5.461 20.1075 6.211 20.5 7 20.5C7.789 20.5 8.54 20.1075 9.114 19.39C9.686 18.675 10 17.7362 10 16.75L10 6.74875C9.999 5.09375 9.477 3.5275 8.527 2.33875C7.577 1.15 6.323 0.497499 4.999 0.5C3.673 0.501249 2.42 1.155 1.472 2.34C0.522 3.525 0 5.09 0 6.745Z" fill="black" fill-opacity="0.3"/>
</svg>
