<svg width="24" height="24" viewBox="0 0 24 24" fill="none" xmlns="http://www.w3.org/2000/svg">
<path d="M2.00375 23.25C2.105 23.25 2.20625 23.2375 2.30625 23.2125L7.30625 21.9625C7.52625 21.9075 7.7275 21.7938 7.8875 21.6338L23.2537 6.26751C23.7262 5.79501 23.9862 5.16751 23.9862 4.50001C23.9862 3.83251 23.7262 3.20501 23.2537 2.73251L21.2712 0.75001C20.3263 -0.19499 18.6813 -0.19499 17.7363 0.75001L2.37 16.1163C2.21 16.2763 2.09625 16.4775 2.04125 16.6963L0.79125 21.6963C0.68375 22.1225 0.81 22.5725 1.12 22.8838C1.35625 23.1213 1.67625 23.25 2.00375 23.25ZM19.5038 2.51751L21.4862 4.50001L19.5038 6.48251L17.5212 4.50001L19.5038 2.51751ZM4.3825 17.6388L15.7538 6.26751L17.7363 8.25001L6.36375 19.6213L3.72125 20.2813L4.3825 17.6388Z" fill="black" fill-opacity="0.8"/>
</svg>
